<svg width="1096" height="539" fill="none" xmlns="http://www.w3.org/2000/svg"><path d="M199.5 470v-99.5H11V341l172-221h74v240.5h68v10h-68V470h-57.5zM55 360.5h144.5V176L55 360.5zM966.5 470v-99.5H778V341l172-221h74v240.5h68v10h-68V470h-57.5zM822 360.5h144.5V176L822 360.5zm-274 117c-29.667 0-56.333-7.667-80-23-23.333-15.667-41.5-37.333-54.5-65-13-28-19.5-59.5-19.5-94.5 0-35.333 6.5-66.833 19.5-94.5s31.167-49.167 54.5-64.5c23.667-15.667 50.333-23.5 80-23.5s56.167 7.833 79.5 23.5c23.333 15.333 41.5 36.833 54.5 64.5s19.5 59.167 19.5 94.5c0 35-6.5 66.5-19.5 94.5-13 27.667-31.167 49.333-54.5 65-23.333 15.333-49.833 23-79.5 23zm0-52.5c18.667 0 35.167-5.333 49.5-16 14.333-11 25.5-26.333 33.5-46s12-42.333 12-68-4-48.333-12-68-19.167-34.833-33.5-45.5c-14.333-11-30.833-16.5-49.5-16.5s-35.167 5.5-49.5 16.5C484.167 192.167 473 207.333 465 227s-12 42.333-12 68 4 48.333 12 68 19.167 35 33.5 46c14.333 10.667 30.833 16 49.5 16z" fill="#F5F5F5"/><path d="M475.5 387.5c3.667-10 24.6-34.5 75-44.5s80.167-77.5 87.5-107.5m-106.5-70c2.667 55.333 22 135.9 64 13.5m-50-14c6.333 34.5 22.6 84.2 37 7m-83 7.5c15.833 24.5 34.4 103-24 207m9-195.5c14.167 37.5 31.3 127.6-17.5 178m-3-149.5c10 31 38 94.5-10.5 119.5m68-171c.667 84 18.5 207.7 82.5 18.5M642.5 320c-31.667 12.833-92.6 51.7-83 104.5m75-64.5c-24.5.167-71.9 12.5-53.5 58.5m45-38c-13.833-1.667-43.5 3-31.5 31" stroke="#F5F5F5" stroke-width="4" stroke-linecap="round"/><path d="M515.5 424c-15-22 1.1-37.8 39.5-67 48-36.5 75-34.5 89.5-89" stroke="#F5F5F5" stroke-width="4" stroke-linecap="round"/></svg>